<?xml version="1.0" standalone="no"?>
<!DOCTYPE svg PUBLIC "-//W3C//DTD SVG 20010904//EN"
 "http://www.w3.org/TR/2001/REC-SVG-20010904/DTD/svg10.dtd">
<svg version="1.0" xmlns="http://www.w3.org/2000/svg"
 width="512.000000pt" height="512.000000pt" viewBox="0 0 512.000000 512.000000"
 preserveAspectRatio="xMidYMid meet">

<g transform="translate(0.000000,512.000000) scale(0.100000,-0.100000)"
fill="#000000" stroke="none">
<path d="M2352 5108 c-5 -7 -52 -76 -104 -153 -73 -108 -97 -150 -101 -185 -4
-25 -22 -127 -40 -226 l-33 -182 120 -22 c67 -12 128 -22 136 -23 11 -2 20 26
37 112 12 63 24 115 26 117 2 2 46 -5 98 -16 52 -12 146 -32 209 -46 300 -64
857 -173 1175 -229 83 -14 186 -33 229 -40 44 -8 81 -14 81 -12 8 10 43 243
37 248 -4 3 -56 14 -117 23 -60 9 -168 26 -240 37 -168 26 -358 55 -515 79
-69 11 -183 28 -255 39 -71 11 -249 39 -394 61 -146 22 -266 42 -268 44 -2 2
10 73 26 157 44 224 46 201 -24 216 -75 15 -71 15 -83 1z"/>
<path d="M2708 3913 l-3 -78 -552 -5 -552 -5 32 -42 c80 -105 239 -182 497
-242 110 -25 342 -58 500 -71 180 -15 198 -19 235 -52 39 -33 75 -119 75 -176
0 -31 -65 -388 -170 -932 -20 -104 -135 -711 -167 -885 -9 -49 -19 -93 -22
-97 -4 -4 -37 109 -75 250 -38 141 -77 286 -86 322 -53 193 -173 639 -180 665
-36 140 -172 641 -175 643 -5 5 9 61 -261 -1028 l-238 -955 -18 80 c-9 44 -24
112 -32 150 -9 39 -27 124 -41 190 -14 66 -32 152 -40 190 -8 39 -26 124 -40
190 -59 274 -87 407 -111 530 -14 72 -29 148 -34 170 -15 68 -60 341 -60 366
0 52 24 104 68 152 l47 50 -34 -6 c-18 -4 -249 -7 -513 -7 l-479 0 37 -37 c51
-52 109 -144 134 -212 23 -60 236 -894 370 -1446 23 -93 59 -242 80 -330 21
-88 61 -252 89 -365 98 -404 135 -600 121 -650 -15 -54 -65 -124 -134 -185
l-61 -55 533 0 534 0 -26 30 c-30 37 -46 88 -46 153 0 83 47 360 115 682 20
94 43 208 52 254 10 54 19 78 24 70 5 -8 9 -23 9 -34 0 -12 27 -158 60 -325
74 -376 110 -582 110 -630 0 -51 -25 -118 -61 -163 l-30 -37 576 0 577 0 -49
38 c-70 56 -151 147 -212 238 l-53 79 4 95 c3 76 9 106 30 152 82 176 282 349
575 496 73 36 135 64 137 61 3 -3 21 -103 41 -224 67 -414 76 -470 85 -527 5
-33 5 -70 0 -88 -12 -43 -63 -129 -129 -218 -31 -42 -60 -83 -65 -90 -6 -9
109 -12 559 -12 l567 0 -20 33 c-100 163 -202 445 -311 867 -39 152 -94 390
-106 461 l-7 36 211 83 c165 65 210 87 207 99 -3 9 -12 45 -20 81 -35 156 -69
286 -75 293 -4 4 -109 -24 -233 -63 -124 -38 -228 -70 -231 -70 -3 0 -10 19
-15 43 -9 39 -58 230 -118 457 -55 205 -78 296 -149 580 -97 386 -102 417 -86
483 45 177 193 314 420 386 105 34 257 61 339 61 l52 0 0 80 0 80 -990 0 -989
0 -3 -77z m838 -1879 c74 -202 134 -372 134 -378 -1 -6 -40 -29 -87 -51 -115
-53 -242 -126 -325 -186 -38 -27 -68 -47 -68 -46 0 2 31 160 69 353 38 192 84
424 102 517 18 92 34 165 37 162 3 -2 65 -169 138 -371z"/>
</g>
</svg>
